<!-- icon666.com - MILLIONS OF FREE VECTOR ICONS --><svg id="Layer_1" enable-background="new 0 0 512 512" viewBox="0 0 512 512" xmlns="http://www.w3.org/2000/svg" xmlns:xlink="http://www.w3.org/1999/xlink"><linearGradient id="SVGID_1_" gradientUnits="userSpaceOnUse" x1="256" x2="256" y1="11.091" y2="500.909"><stop offset="0" stop-color="#17a6d7"></stop><stop offset=".0617" stop-color="#259adb"></stop><stop offset=".1856" stop-color="#3b87e2"></stop><stop offset=".2649" stop-color="#4380e4"></stop><stop offset="1" stop-color="#9735fd"></stop></linearGradient><path d="m480.624 11.091h-449.248c-17.293 0-31.376 14.072-31.376 31.365v427.089c0 17.293 14.083 31.364 31.376 31.364h449.248c17.293 0 31.376-14.071 31.376-31.364v-427.089c0-17.293-14.083-31.365-31.376-31.365zm-121.729 314.552c0 49.014-39.878 88.881-88.892 88.881h-97.614c-10.654 0-19.283-8.629-19.283-19.272v-278.424c0-10.643 8.629-19.272 19.283-19.272h97.614c49.014 0 88.892 39.867 88.892 88.869 0 28.177-13.197 53.317-33.711 69.609 20.514 16.304 33.711 41.432 33.711 69.609zm-38.556 0c0 27.752-22.574 50.337-50.337 50.337h-78.342v-100.662h78.342c27.763 0 50.337 22.574 50.337 50.325zm0-139.218c0 27.763-22.574 50.337-50.337 50.337h-78.342v-100.662h78.342c27.763 0 50.337 22.574 50.337 50.325z" fill="url(#SVGID_1_)"></path></svg>